<svg xmlns="http://www.w3.org/2000/svg" viewBox="0 0 156.62 208.74"><defs><style>.cls-1{fill:#f6c1a8;}.cls-2{opacity:0.48;}.cls-3{fill:#dc8f6e;}.cls-4{fill:#90d1f2;}.cls-5{fill:#54beeb;}.cls-6{fill:#f3af93;}.cls-7{fill:none;stroke:#af8876;stroke-linecap:round;stroke-linejoin:round;stroke-width:1.5px;}.cls-8{fill:#f1a499;}.cls-9{fill:#541c0a;}.cls-10{fill:#fff;}</style></defs><title>Asset 1</title><g id="Layer_2" data-name="Layer 2"><g id="Capa_1" data-name="Capa 1"><path class="cls-1" d="M139.28,185.45A50.7,50.7,0,0,0,124.67,167c-3.88-2.86-7.29-8.1-30,2.23-5.82,2.65-15.79,30-9.68,28.06,0,0,10.77.28,17.8-2.56a35.6,35.6,0,0,0,11-7.69,30.51,30.51,0,0,0,7.47,7.05c5.22,3.9,14.36,6.17,17.42,3.27C142.19,194.56,141.6,190.62,139.28,185.45Z"/><path class="cls-1" d="M156.54,184.09a2.44,2.44,0,0,0-2.34-1.83l1-.69a2.65,2.65,0,0,0-3.08-4.32l-.18.13.43-.54a2.87,2.87,0,0,0-4.49-3.59l-.08.11a2.87,2.87,0,0,0-5.36-2l0,0a13.34,13.34,0,0,0,0-1.5,3.84,3.84,0,0,0-1.36-2.44,5,5,0,0,0-3.4-.61,3.9,3.9,0,0,0-2.13,1.82,21.56,21.56,0,0,0-.93,6.45,2.85,2.85,0,0,0,.19.75,11.81,11.81,0,0,0-2.72,3.52c-3.25,6.65-1.15,9.71-3.5,12-3,2.88-5.63,8,.08,11.57,2.6,1.6,6.87,2.35,10.11-3.53,3.57-6.5,4.41-3.8,8-6.18a16.75,16.75,0,0,0,5.55-5.54l2.48-.64A2.43,2.43,0,0,0,156.54,184.09Z"/><g class="cls-2"><path class="cls-3" d="M134.44,176.17a14.66,14.66,0,0,0-1.52,2.38c-.2.41-.36.84-.52,1.27s-.33.87-.47,1.32a23,23,0,0,0-1.14,5.38,26.17,26.17,0,0,1-.41,2.94,4.94,4.94,0,0,1-.67,1.54,5.27,5.27,0,0,1-1.09,1.15,13,13,0,0,0-3.3,4.44,9.05,9.05,0,0,1,2.36-5.36,5.89,5.89,0,0,0,.77-1,3.6,3.6,0,0,0,.37-1.12c.15-.82.19-1.78.28-2.75a19.55,19.55,0,0,1,.52-2.93,17,17,0,0,1,1-2.79,12.73,12.73,0,0,1,1.52-2.55A7.91,7.91,0,0,1,134.44,176.17Z"/></g><path class="cls-1" d="M17.34,185.45A50.7,50.7,0,0,1,32,167c3.88-2.86,7.29-8.1,30,2.23,5.82,2.65,15.79,30,9.68,28.06,0,0-10.77.28-17.81-2.56a35.64,35.64,0,0,1-11-7.69,30.51,30.51,0,0,1-7.47,7.05C30.18,198,21,200.26,18,197.36,14.43,194.56,15,190.62,17.34,185.45Z"/><path class="cls-1" d="M.08,184.09a2.44,2.44,0,0,1,2.34-1.83l-1-.69a2.65,2.65,0,1,1,3.08-4.32l.18.13-.43-.54a2.87,2.87,0,0,1,4.49-3.59l.08.11a2.87,2.87,0,0,1,5.36-2l0,0a10,10,0,0,1,0-1.5,3.84,3.84,0,0,1,1.36-2.44,5,5,0,0,1,3.4-.61,3.9,3.9,0,0,1,2.13,1.82A21.56,21.56,0,0,1,22,175.1a2.85,2.85,0,0,1-.19.75,11.81,11.81,0,0,1,2.72,3.52c3.25,6.65,1.15,9.71,3.5,12,3,2.88,5.63,8-.08,11.57-2.6,1.6-6.87,2.35-10.11-3.53-3.57-6.5-4.41-3.8-8-6.18a16.7,16.7,0,0,1-5.56-5.54l-2.48-.64A2.43,2.43,0,0,1,.08,184.09Z"/><g class="cls-2"><path class="cls-3" d="M22.18,176.17a7.91,7.91,0,0,1,2.26,1.91A12.73,12.73,0,0,1,26,180.63a17,17,0,0,1,1,2.79,19.55,19.55,0,0,1,.52,2.93c.09,1,.13,1.93.28,2.75a3.6,3.6,0,0,0,.37,1.12,5.89,5.89,0,0,0,.77,1,9.05,9.05,0,0,1,2.36,5.36,13,13,0,0,0-3.3-4.44A5.27,5.27,0,0,1,26.91,191a4.94,4.94,0,0,1-.67-1.54,24.05,24.05,0,0,1-.41-2.94,23.55,23.55,0,0,0-1.14-5.38c-.14-.45-.29-.86-.47-1.32a13,13,0,0,0-.52-1.27A14.66,14.66,0,0,0,22.18,176.17Z"/></g><path class="cls-4" d="M110.56,176.8c-2.06,7.57-10.15,17.47-16.34,20a46.52,46.52,0,0,1-31.82,0c-6.19-2.52-14.28-12.42-16.34-20a83.65,83.65,0,0,1,0-38.92c2.06-7.57,10.15-17.47,16.34-20a46.64,46.64,0,0,1,31.82,0c6.19,2.52,14.28,12.42,16.34,20A83.92,83.92,0,0,1,110.56,176.8Z"/><path class="cls-1" d="M100.62,187c-2.21,5.47-5.69,10.22-11.18,8.75-5.2-1.38-5.63-5.36-5.24-10.66.76-10.37,2.86-15.91,2.86-15.91a106,106,0,0,1,.81-17.13c.69-5.28,4.27-18.76,4.27-18.76,1.06-5.21,7.47-8.25,12.68-7.19h0c5.21,1.07,9.76,6,8.7,11.23,0,0-2.89,14.59-5.25,22.81a41.81,41.81,0,0,1-5,11.47S102.55,182.23,100.62,187Z"/><path class="cls-5" d="M110.73,152.76l3.3-16.43a11.43,11.43,0,1,0-22.41-4.5l-3.3,16.43Z"/><path class="cls-1" d="M97.27,203.78a2,2,0,0,1-3.94.9L93,203.22h0l-.13,3.48a2.12,2.12,0,1,1-4.23-.15l.12-3.24-.15,0-.8,2.69a2.12,2.12,0,0,1-4.06-1.2l.78-2.61L83.38,204a2.12,2.12,0,1,1-3.59-2.24s3.07-4,2.44-4.87c-.2-.3-1,0-1.94.23-1.3.31-2.22.33-2.68-.92-.34-.94.92-2.63,3.19-3.61,1.55-.68,6.49-2.06,10.55-1s6.73,4.48,5.92,7.7A9.13,9.13,0,0,0,97.27,203.78Z"/><path class="cls-1" d="M56,187c2.21,5.47,5.69,10.22,11.18,8.75,5.2-1.38,5.63-5.36,5.24-10.66-.76-10.37-2.86-15.91-2.86-15.91a106,106,0,0,0-.81-17.13c-.69-5.28-4.27-18.76-4.27-18.76-1.06-5.21-7.47-8.25-12.68-7.19h0c-5.21,1.07-9.76,6-8.7,11.23,0,0,2.89,14.59,5.25,22.81a41.81,41.81,0,0,0,5,11.47S54.07,182.23,56,187Z"/><path class="cls-5" d="M45.89,152.76l-3.3-16.43A11.43,11.43,0,1,1,65,131.83l3.3,16.43Z"/><path class="cls-1" d="M59.35,203.78a2,2,0,1,0,3.94.9l.32-1.46h0l.12,3.48a2.12,2.12,0,1,0,4.23-.15l-.12-3.24.15,0,.8,2.69a2.12,2.12,0,0,0,4.06-1.2l-.78-2.61L73.24,204a2.12,2.12,0,1,0,3.59-2.24s-3.07-4-2.44-4.87c.2-.3,1,0,1.94.23,1.3.31,2.22.33,2.68-.92.34-.94-.93-2.63-3.19-3.61-1.55-.68-6.49-2.06-10.55-1s-6.73,4.48-5.92,7.7A9.13,9.13,0,0,1,59.35,203.78Z"/><path class="cls-6" d="M94,122.62c0,5.44-7,9.85-15.64,9.85s-15.64-4.41-15.64-9.85,7-9.85,15.64-9.85S94,117.18,94,122.62Z"/><circle class="cls-1" cx="78.31" cy="62.41" r="62.41" transform="translate(4.16 129.71) rotate(-80.78)"/><path class="cls-1" d="M27.64,75.46c2.2,7.44.16,14.6-4.56,16s-10.32-3.51-12.51-11-.16-14.6,4.56-16S25.45,68,27.64,75.46Z"/><path class="cls-1" d="M129,75.46c-2.2,7.44-.16,14.6,4.56,16s10.32-3.51,12.51-11,.16-14.6-4.56-16S131.17,68,129,75.46Z"/><path class="cls-7" d="M81.28,88.34S78.09,95,85.4,96.89"/><path class="cls-8" d="M112.54,102.29c0,3.27-4.19,5.92-9.36,5.92s-9.35-2.65-9.35-5.92,4.19-5.92,9.35-5.92S112.54,99,112.54,102.29Z"/><path class="cls-8" d="M64.48,102.29c0,3.27-4.19,5.92-9.35,5.92s-9.36-2.65-9.36-5.92,4.19-5.92,9.36-5.92S64.48,99,64.48,102.29Z"/><path class="cls-9" d="M68,106.14a21.2,21.2,0,0,0,5.79,3.22,18.7,18.7,0,0,0,12.75,0,21.62,21.62,0,0,0,5.79-3.22A14.65,14.65,0,0,1,87,110.39a16.09,16.09,0,0,1-13.59,0A14.52,14.52,0,0,1,68,106.14Z"/><path class="cls-9" d="M48.38,65.64a21.76,21.76,0,0,0-4,1.6,18.08,18.08,0,0,0-3.26,2.2,25.34,25.34,0,0,0-2.82,2.85c-.9,1.06-1.74,2.22-2.75,3.45a9.59,9.59,0,0,1,.83-4.62,10.7,10.7,0,0,1,2.89-3.87,9.92,9.92,0,0,1,4.39-2.14A7.31,7.31,0,0,1,48.38,65.64Z"/><path class="cls-9" d="M108.12,65.64a7.28,7.28,0,0,1,4.72-.53,9.82,9.82,0,0,1,4.39,2.14,10.73,10.73,0,0,1,2.9,3.87,9.71,9.71,0,0,1,.83,4.62c-1-1.23-1.86-2.39-2.76-3.45a24.45,24.45,0,0,0-2.81-2.85,18.52,18.52,0,0,0-3.27-2.2A21.65,21.65,0,0,0,108.12,65.64Z"/><path class="cls-9" d="M58,87.21c0,4.51-2.58,8.16-5.76,8.16s-5.76-3.65-5.76-8.16,2.58-8.16,5.76-8.16S58,82.7,58,87.21Z"/><path class="cls-10" d="M53.73,84.48c0,2-1.16,3.66-2.58,3.66s-2.58-1.64-2.58-3.66,1.15-3.66,2.58-3.66S53.73,82.46,53.73,84.48Z"/><path class="cls-9" d="M113.53,87.21c0,4.51-2.58,8.16-5.76,8.16S102,91.72,102,87.21s2.58-8.16,5.76-8.16S113.53,82.7,113.53,87.21Z"/><path class="cls-10" d="M109.26,84.48c0,2-1.16,3.66-2.58,3.66s-2.58-1.64-2.58-3.66,1.15-3.66,2.58-3.66S109.26,82.46,109.26,84.48Z"/></g></g></svg>