<svg xmlns="http://www.w3.org/2000/svg" viewBox="0 0 654.6 641.11"><title>Asset 1</title><g id="Layer_2" data-name="Layer 2"><g id="Layer_1-2" data-name="Layer 1"><path d="M531.3,383c0-43.67,66.41-43.67,66.41,0V553.94c0,47.93-39.24,87.17-87.17,87.17H87.17C39.24,641.11,0,601.87,0,553.94V127.76C0,79.83,39.24,40.59,87.17,40.59H269.33c43.67,0,43.67,66.41,0,66.41H87.17A20.81,20.81,0,0,0,66.4,127.76V553.94a20.82,20.82,0,0,0,20.77,20.77H510.54a20.81,20.81,0,0,0,20.76-20.77V383ZM564.63,7.88,646.73,90a27.07,27.07,0,0,1,0,38.16l-11.09,11.09L515.38,19,526.47,7.88a27.05,27.05,0,0,1,38.16,0Zm52.12,150.24L391.14,383.72,270.88,263.45,496.49,37.85,616.75,158.12ZM369.18,399.53l-131.74,18.6,17.32-133Z"/></g></g></svg>