<svg xmlns="http://www.w3.org/2000/svg" viewBox="0 0 156.62 208.74"><defs><style>.cls-1{isolation:isolate;}.cls-2{fill:#f6c1a8;}.cls-3{opacity:0.48;}.cls-4{fill:#dc8f6e;}.cls-5{fill:#e777ab;}.cls-6{fill:#e35b9c;}.cls-7{fill:#f3af93;}.cls-8{fill:none;stroke:#af8876;stroke-linecap:round;stroke-linejoin:round;stroke-width:1.5px;}.cls-9{fill:#f1a499;}.cls-10{fill:#541c0a;}.cls-11,.cls-13{fill:#fff;}.cls-12{fill:#c94e8c;}.cls-13{opacity:0.5;mix-blend-mode:soft-light;}.cls-14{fill:#be0074;}.cls-15{fill:#da0080;}</style></defs><title>Asset 1</title><g class="cls-1"><g id="Layer_2" data-name="Layer 2"><g id="Capa_1" data-name="Capa 1"><path class="cls-2" d="M139.28,185.45A50.7,50.7,0,0,0,124.67,167c-3.88-2.86-7.29-8.1-30,2.23-5.82,2.65-15.79,30-9.68,28.06,0,0,10.77.28,17.8-2.56a35.6,35.6,0,0,0,11-7.69,30.51,30.51,0,0,0,7.47,7.05c5.22,3.9,14.36,6.17,17.42,3.27C142.19,194.56,141.6,190.62,139.28,185.45Z"/><path class="cls-2" d="M156.54,184.09a2.44,2.44,0,0,0-2.34-1.83l1-.69a2.65,2.65,0,0,0-3.08-4.32l-.18.13.43-.54a2.87,2.87,0,0,0-4.49-3.59l-.08.11a2.87,2.87,0,0,0-5.36-2l0,0a13.34,13.34,0,0,0,0-1.5,3.84,3.84,0,0,0-1.36-2.44,5,5,0,0,0-3.4-.61,3.9,3.9,0,0,0-2.13,1.82,21.56,21.56,0,0,0-.93,6.45,2.85,2.85,0,0,0,.19.75,11.81,11.81,0,0,0-2.72,3.52c-3.25,6.65-1.15,9.71-3.5,12-3,2.88-5.63,8,.08,11.57,2.6,1.6,6.87,2.35,10.11-3.53,3.57-6.5,4.41-3.81,8-6.18a16.7,16.7,0,0,0,5.56-5.54l2.48-.64A2.42,2.42,0,0,0,156.54,184.09Z"/><g class="cls-3"><path class="cls-4" d="M134.44,176.17a14.66,14.66,0,0,0-1.52,2.38c-.2.41-.36.84-.52,1.27s-.33.87-.47,1.32a23,23,0,0,0-1.14,5.38,25.7,25.7,0,0,1-.41,2.93,4.75,4.75,0,0,1-.67,1.54,5.12,5.12,0,0,1-1.09,1.16,13,13,0,0,0-3.3,4.44,9.05,9.05,0,0,1,2.36-5.36,5.89,5.89,0,0,0,.77-1,3.6,3.6,0,0,0,.37-1.12c.15-.82.19-1.78.28-2.75a19.55,19.55,0,0,1,.52-2.93,17,17,0,0,1,1-2.79,13.09,13.09,0,0,1,1.52-2.56A8,8,0,0,1,134.44,176.17Z"/></g><path class="cls-2" d="M17.34,185.45A50.7,50.7,0,0,1,32,167c3.88-2.86,7.29-8.1,30,2.23,5.82,2.65,15.79,30,9.68,28.06,0,0-10.77.28-17.81-2.56a35.64,35.64,0,0,1-11-7.69,30.51,30.51,0,0,1-7.47,7.05C30.18,198,21,200.26,18,197.36,14.43,194.56,15,190.62,17.34,185.45Z"/><path class="cls-2" d="M.08,184.09a2.44,2.44,0,0,1,2.34-1.83l-1-.69a2.65,2.65,0,1,1,3.08-4.32l.18.13-.43-.54a2.87,2.87,0,0,1,4.49-3.59l.08.11a2.87,2.87,0,0,1,5.36-2l0,0a10,10,0,0,1,0-1.5,3.84,3.84,0,0,1,1.36-2.44,5,5,0,0,1,3.4-.61,3.9,3.9,0,0,1,2.13,1.82A21.56,21.56,0,0,1,22,175.1a2.85,2.85,0,0,1-.19.75,11.81,11.81,0,0,1,2.72,3.52c3.25,6.65,1.15,9.71,3.49,12,3,2.88,5.64,8-.07,11.57-2.6,1.6-6.87,2.35-10.11-3.53-3.57-6.5-4.41-3.81-8-6.18a16.66,16.66,0,0,1-5.55-5.54l-2.48-.64A2.42,2.42,0,0,1,.08,184.09Z"/><g class="cls-3"><path class="cls-4" d="M22.18,176.17a7.91,7.91,0,0,1,2.26,1.91A12.73,12.73,0,0,1,26,180.63a17,17,0,0,1,1,2.79,19.55,19.55,0,0,1,.52,2.93c.09,1,.13,1.93.28,2.75a3.6,3.6,0,0,0,.37,1.12,5.89,5.89,0,0,0,.77,1,9.05,9.05,0,0,1,2.36,5.36,13,13,0,0,0-3.3-4.44A5.12,5.12,0,0,1,26.91,191a4.75,4.75,0,0,1-.67-1.54,23.64,23.64,0,0,1-.41-2.93,23.55,23.55,0,0,0-1.14-5.38c-.14-.45-.29-.86-.47-1.32a13,13,0,0,0-.52-1.27A14.66,14.66,0,0,0,22.18,176.17Z"/></g><path class="cls-5" d="M110.56,176.8c-2.06,7.57-10.15,17.47-16.34,20a46.52,46.52,0,0,1-31.82,0c-6.19-2.52-14.28-12.42-16.34-20a83.65,83.65,0,0,1,0-38.92c2.06-7.57,10.15-17.47,16.34-20a46.64,46.64,0,0,1,31.82,0c6.19,2.52,14.28,12.42,16.34,20A83.92,83.92,0,0,1,110.56,176.8Z"/><path class="cls-2" d="M100.62,187c-2.21,5.47-5.69,10.22-11.18,8.75-5.2-1.38-5.63-5.36-5.24-10.66.76-10.37,2.86-15.91,2.86-15.91a106.14,106.14,0,0,1,.81-17.14c.69-5.27,4.27-18.76,4.27-18.76,1.06-5.2,7.47-8.24,12.68-7.18h0c5.21,1.07,9.76,6,8.7,11.23,0,0-2.89,14.59-5.25,22.81a41.81,41.81,0,0,1-5,11.47S102.55,182.23,100.62,187Z"/><path class="cls-6" d="M110.73,152.76l3.3-16.43a11.43,11.43,0,1,0-22.41-4.5l-3.3,16.43Z"/><path class="cls-2" d="M97.27,203.78a2,2,0,0,1-3.94.9L93,203.22h0l-.13,3.48a2.12,2.12,0,1,1-4.23-.15l.12-3.24-.15,0-.8,2.69a2.12,2.12,0,0,1-4.06-1.2l.78-2.61L83.38,204a2.12,2.12,0,1,1-3.59-2.24s3.07-4,2.44-4.87c-.2-.3-1,0-1.94.23-1.3.31-2.22.33-2.68-.92-.34-.94.92-2.63,3.19-3.61,1.55-.68,6.49-2.06,10.55-1s6.73,4.48,5.92,7.7A9.13,9.13,0,0,0,97.27,203.78Z"/><path class="cls-2" d="M56,187c2.21,5.47,5.69,10.22,11.18,8.75,5.2-1.38,5.63-5.36,5.24-10.66-.76-10.37-2.86-15.91-2.86-15.91a106.14,106.14,0,0,0-.81-17.14c-.69-5.27-4.27-18.76-4.27-18.76-1.06-5.2-7.47-8.24-12.68-7.18h0c-5.21,1.07-9.76,6-8.7,11.23,0,0,2.89,14.59,5.25,22.81a41.81,41.81,0,0,0,5,11.47S54.07,182.23,56,187Z"/><path class="cls-6" d="M45.89,152.76l-3.3-16.43A11.43,11.43,0,1,1,65,131.83l3.3,16.43Z"/><path class="cls-2" d="M59.35,203.78a2,2,0,1,0,3.94.9l.32-1.46h0l.13,3.48a2.12,2.12,0,1,0,4.23-.15l-.12-3.24.15,0,.8,2.69a2.11,2.11,0,1,0,4-1.2l-.77-2.61L73.24,204a2.12,2.12,0,1,0,3.59-2.24s-3.07-4-2.44-4.87c.2-.3,1,0,1.94.23,1.3.31,2.22.33,2.68-.92.34-.94-.92-2.63-3.19-3.61-1.55-.68-6.5-2.06-10.55-1s-6.73,4.48-5.92,7.7A9.13,9.13,0,0,1,59.35,203.78Z"/><path class="cls-7" d="M94,122.62c0,5.44-7,9.85-15.64,9.85s-15.64-4.41-15.64-9.85,7-9.85,15.64-9.85S94,117.18,94,122.62Z"/><path class="cls-2" d="M140.72,62.41A62.41,62.41,0,1,1,78.31,0,62.41,62.41,0,0,1,140.72,62.41Z"/><path class="cls-2" d="M27.64,75.46c2.2,7.44.16,14.6-4.56,16s-10.32-3.51-12.51-11-.16-14.6,4.56-16S25.45,68,27.64,75.46Z"/><path class="cls-2" d="M129,75.46c-2.2,7.44-.16,14.6,4.56,16s10.32-3.51,12.51-11,.16-14.6-4.56-16S131.17,68,129,75.46Z"/><path class="cls-5" d="M78.66,11.75c-33.26,0-58,22-62,47.83a47.89,47.89,0,0,0,.24,12.61c5.22-23.29,36.58-35,61.79-35,18.29,0,56.56,11.7,61.78,35A46.43,46.43,0,0,0,141,59.75C138.1,40.43,118.53,11.75,78.66,11.75Z"/><path class="cls-8" d="M81.28,88.34S78.09,95,85.4,96.89"/><path class="cls-9" d="M112.54,102.29c0,3.27-4.19,5.92-9.36,5.92s-9.35-2.65-9.35-5.92,4.19-5.92,9.35-5.92S112.54,99,112.54,102.29Z"/><path class="cls-9" d="M64.48,102.29c0,3.27-4.19,5.92-9.35,5.92s-9.36-2.65-9.36-5.92,4.19-5.92,9.36-5.92S64.48,99,64.48,102.29Z"/><path class="cls-10" d="M68,106.14a21.2,21.2,0,0,0,5.79,3.22,18.86,18.86,0,0,0,12.75,0,21.62,21.62,0,0,0,5.79-3.22A14.65,14.65,0,0,1,87,110.39a16.09,16.09,0,0,1-13.59,0A14.52,14.52,0,0,1,68,106.14Z"/><path class="cls-10" d="M48.37,65.64a21.94,21.94,0,0,0-4,1.6,18.08,18.08,0,0,0-3.26,2.2,25.34,25.34,0,0,0-2.82,2.85c-.9,1.06-1.74,2.22-2.75,3.45a9.59,9.59,0,0,1,.83-4.62,10.7,10.7,0,0,1,2.89-3.87,9.92,9.92,0,0,1,4.39-2.14A7.27,7.27,0,0,1,48.37,65.64Z"/><path class="cls-10" d="M108.12,65.64a7.28,7.28,0,0,1,4.72-.53,9.82,9.82,0,0,1,4.39,2.14,10.73,10.73,0,0,1,2.9,3.87,9.71,9.71,0,0,1,.83,4.62c-1-1.23-1.86-2.39-2.76-3.45a24.45,24.45,0,0,0-2.81-2.85,18.52,18.52,0,0,0-3.27-2.2A21.65,21.65,0,0,0,108.12,65.64Z"/><path class="cls-10" d="M49.64,82.19a5.14,5.14,0,0,1-1.33-.64,5.44,5.44,0,0,1-1.07-.89,4.11,4.11,0,0,1-1.1-2.33,3.49,3.49,0,0,0,1.75,1.43,4.08,4.08,0,0,0,1,.25,3.11,3.11,0,0,0,1,0Z"/><path class="cls-10" d="M49.07,84.33a7.54,7.54,0,0,1-1.39-.72,7.73,7.73,0,0,1-1.18-.94,4.37,4.37,0,0,1-1.37-2.5,3.87,3.87,0,0,0,2,1.59,7.08,7.08,0,0,0,1.2.32,6.06,6.06,0,0,0,1.17.08Z"/><path class="cls-10" d="M48.8,86.19a7.81,7.81,0,0,1-1.59-.54,7.43,7.43,0,0,1-1.38-.83A4.89,4.89,0,0,1,44,82.38a4.36,4.36,0,0,0,2.31,1.46,5.85,5.85,0,0,0,1.3.2A5,5,0,0,0,48.89,84Z"/><path class="cls-10" d="M58,87.21c0,4.51-2.58,8.16-5.76,8.16s-5.76-3.65-5.76-8.16,2.58-8.16,5.76-8.16S58,82.7,58,87.21Z"/><path class="cls-11" d="M53.73,84.48c0,2-1.16,3.66-2.58,3.66s-2.58-1.64-2.58-3.66,1.15-3.66,2.58-3.66S53.73,82.46,53.73,84.48Z"/><path class="cls-10" d="M110.54,80a3.18,3.18,0,0,0,1,0,4.08,4.08,0,0,0,1-.25,3.47,3.47,0,0,0,1.74-1.43,4,4,0,0,1-1.09,2.33,5.75,5.75,0,0,1-1.07.89,5.14,5.14,0,0,1-1.33.64Z"/><path class="cls-10" d="M111,82.16a6.16,6.16,0,0,0,1.18-.08,7.22,7.22,0,0,0,1.19-.32,3.85,3.85,0,0,0,2-1.59,4.43,4.43,0,0,1-1.37,2.5,7.91,7.91,0,0,1-2.57,1.66Z"/><path class="cls-10" d="M111.55,84a5,5,0,0,0,1.24.06,5.85,5.85,0,0,0,1.31-.2,4.36,4.36,0,0,0,2.31-1.46,4.91,4.91,0,0,1-1.81,2.44,7.36,7.36,0,0,1-1.37.83,8,8,0,0,1-1.59.54Z"/><path class="cls-10" d="M113.53,87.21c0,4.51-2.58,8.16-5.76,8.16S102,91.72,102,87.21s2.58-8.16,5.76-8.16S113.53,82.7,113.53,87.21Z"/><path class="cls-11" d="M109.26,84.48c0,2-1.16,3.66-2.58,3.66s-2.58-1.64-2.58-3.66,1.15-3.66,2.58-3.66S109.26,82.46,109.26,84.48Z"/><polygon class="cls-12" points="38.11 67.62 46.37 61.16 53.09 69.44 57.4 34.05 42.42 32.23 38.11 67.62"/><path class="cls-13" d="M53.73,55.63S55,44.21,55.52,40.16c.23-1.94-.34-5.66-1.19-.25s-2,2.59-1.73.2-.62-5.14-1-1.26-1.82,5.28-1.91,2.78-.47-7.46-1.21-4S47,44.38,46.87,42s.11-9-.66-4.8-1.78,6-1.75,4.11-.9-8.17-1.37-3.83-1.28,9.8-2.28,18.07c-.29,2.41,1.14,4.79,2-.42s1.82-2.53,1.37,0,.72,5.39,1.15,1.91,1.69-8,1.64-3.8-.15,8.24.4,5.29,1.77-9.16,1.56-4.66.07,8,.88,4.56,2.1-9.18,1.92-5S53,61,53.73,55.63Z"/><polygon class="cls-12" points="82.72 51.89 72.24 52.03 72.2 62.71 46.65 37.84 57.17 27.03 82.72 51.89"/><path class="cls-13" d="M63,52.34s-8.18-8.07-11.1-10.92c-1.4-1.36-3.28-4.61.77-.94s3.2.75,1.48-.93-2.75-4.39,0-1.62,4.74,3,3.24,1-4.32-6.1-1.57-3.89,5.39,4.35,3.94,2.39-5.71-6.92-2.49-4.15,5.15,3.56,3.93,2.1-4.42-6.93-1.34-3.84S67.05,38.33,73,44.14c1.74,1.69,2.12,4.45-1.8.91s-3-.83-1,.89,2.82,4.66.3,2.21S64.15,43,66.82,46.22s5.29,6.32,3,4.37-7.12-6-4.13-2.65,5,6.28,2.17,4.11-7.4-5.84-4.64-2.7S67,56.11,63,52.34Z"/><path class="cls-14" d="M55.6,32.8s13.66.36,20.14-.89c8.34-1.61,10.58-4.45,10.08-7.39-.54-3.2-4.4-5.74-11.25-3.23C69.7,23.07,67,23.88,55.6,32.8Z"/><path class="cls-6" d="M86.13,23.56c-.3,1.08-.27,1.52-.73.21-.62-1.75-4.58-4.71-13.59-.84-6.57,2.81-10,5.85-14.2,9-1.75,1.3-6,1.53-7.1-.85-4.15-9.19,4.31-19.18,18.15-27.58C76-.95,82.65,3,84.2,4.92,87.34,8.83,88.75,14.26,86.13,23.56Z"/><path class="cls-13" d="M56,15.59S64.29,5.5,74.22,4c0,0,4.67.1-.91,1.42s-5.1,2.72.27,2.11S81,8.62,75.5,9s-5.58,2.89-2,2.36,9.77,1.62,4,1.83-8.39,3-4,2.43,8,.13,5.76.73-8.41,3.33-4.53,2.51,6.64.33,1.9,1.17-14.24,4.65-16.91,7.53-1.62-.81,1-2.64,1.3-2.57-1.57-.45-4.88,3.1-2-.21,3.12-5.42.14-2.71-5.19,2.66-2.61-.28,3.72-4.62,1.6-3S52.24,20.21,56,15.59Z"/><path class="cls-14" d="M46.32,36.07S35.91,44.92,30.08,48c-7.51,4-11,3.16-12.49.57C16,45.74,17.42,41.35,24.33,39,29.24,37.33,31.89,36.24,46.32,36.07Z"/><path class="cls-6" d="M16.74,48c.92.65,1.18,1,.72-.3-.62-1.75.61-6.53,10.05-9.17,6.88-1.93,11.46-1.72,16.7-1.91,2.17-.08,5.64-2.59,5-5.12-2.53-9.76-15.39-12.23-31.44-10.09C9.31,22.55,6.57,29.83,6.57,32.3,6.56,37.31,8.88,42.42,16.74,48Z"/><path class="cls-13" d="M35.25,22.89s-12.81-2.63-21.47,2.45c0,0-3.58,3,1.6.54s5.67-1.08,1.11,1.81S11.35,33.18,15.9,30s6.16-1.26,3,.58S12.34,38,17,34.5s8.39-3,4.65-.63-6.14,5.11-4,4.18,8.64-2.68,5.11-.88-5,4.42-.75,2.1,14-5.3,17.9-4.74.75-1.65-2.4-1.46-2.62-1.19.94-1.34,5.74-.65,1.46-1.43-5.83-2.27-1.82-2,5.71-1.19,1.86-1.85-5.79-1.27-3.15-1.37S41,24.16,35.25,22.89Z"/><path class="cls-14" d="M56,27.43a5.84,5.84,0,0,1-3.57,7.46l-2.31.81a5.85,5.85,0,0,1-7.46-3.56l-.81-2.31a5.85,5.85,0,0,1,3.57-7.46l2.31-.81a5.85,5.85,0,0,1,7.46,3.56Z"/><path class="cls-15" d="M52.09,25c.64,1.82-.44,3.43-2.26,4.07l-1.37.49a3.17,3.17,0,0,1-4.31-1.76l-.21-.6c-.64-1.82.44-3.43,2.25-4.07l1.38-.49a3.16,3.16,0,0,1,4.3,1.76Z"/></g></g></g></svg>