<svg xmlns="http://www.w3.org/2000/svg" xmlns:xlink="http://www.w3.org/1999/xlink" viewBox="0 0 169.48 63.99"><defs><style>.cls-1{fill:#fff;}.cls-2{fill:url(#linear-gradient);}.cls-3{fill:url(#linear-gradient-2);}.cls-4{fill:url(#linear-gradient-3);}.cls-5{fill:url(#linear-gradient-4);}.cls-6{fill:url(#linear-gradient-5);}.cls-7{fill:url(#linear-gradient-6);}.cls-8{fill:url(#linear-gradient-7);}.cls-9{fill:url(#linear-gradient-8);}.cls-10{fill:url(#linear-gradient-9);}.cls-11{fill:url(#linear-gradient-10);}.cls-12{fill:url(#linear-gradient-11);}.cls-13{fill:url(#linear-gradient-12);}.cls-14{fill:url(#linear-gradient-13);}.cls-15{fill:url(#linear-gradient-14);}.cls-16{fill:url(#linear-gradient-15);}.cls-17{fill:url(#linear-gradient-16);}.cls-18{fill:url(#linear-gradient-17);}</style><linearGradient id="linear-gradient" x1="-689.4" y1="-58.15" x2="-543.19" y2="-50.89" gradientTransform="translate(704.21 87)" gradientUnits="userSpaceOnUse"><stop offset="0" stop-color="#eaae2f"/><stop offset="0.24" stop-color="#fbf189"/><stop offset="0.46" stop-color="#ecba2e"/><stop offset="0.73" stop-color="#fbf189"/><stop offset="1" stop-color="#ecbe2b"/></linearGradient><linearGradient id="linear-gradient-2" x1="-688.3" y1="-80.29" x2="-542.07" y2="-73.04" xlink:href="#linear-gradient"/><linearGradient id="linear-gradient-3" x1="-688.89" y1="-68.55" x2="-542.69" y2="-61.29" xlink:href="#linear-gradient"/><linearGradient id="linear-gradient-4" x1="-688.46" y1="-77.34" x2="-542.18" y2="-70.08" xlink:href="#linear-gradient"/><linearGradient id="linear-gradient-5" x1="-688.81" y1="-70.16" x2="-542.57" y2="-62.9" xlink:href="#linear-gradient"/><linearGradient id="linear-gradient-6" x1="-688.62" y1="-74.01" x2="-542.39" y2="-66.76" xlink:href="#linear-gradient"/><linearGradient id="linear-gradient-7" x1="-688.33" y1="-81.19" x2="-542" y2="-73.94" xlink:href="#linear-gradient"/><linearGradient id="linear-gradient-8" x1="-688.58" y1="-74.66" x2="-542.37" y2="-67.41" xlink:href="#linear-gradient"/><linearGradient id="linear-gradient-9" x1="-688.88" y1="-68.75" x2="-542.64" y2="-61.49" xlink:href="#linear-gradient"/><linearGradient id="linear-gradient-10" x1="-689.18" y1="-62.26" x2="-542.99" y2="-55.01" xlink:href="#linear-gradient"/><linearGradient id="linear-gradient-11" x1="-688.36" y1="-77.48" x2="-542.31" y2="-70.24" xlink:href="#linear-gradient"/><linearGradient id="linear-gradient-12" x1="-688.6" y1="-74.49" x2="-542.37" y2="-67.24" xlink:href="#linear-gradient"/><linearGradient id="linear-gradient-13" x1="-688.39" y1="-80.38" x2="-542.07" y2="-73.12" xlink:href="#linear-gradient"/><linearGradient id="linear-gradient-14" x1="-688.57" y1="-74.85" x2="-542.35" y2="-67.59" xlink:href="#linear-gradient"/><linearGradient id="linear-gradient-15" x1="-689.1" y1="-64.81" x2="-542.85" y2="-57.55" xlink:href="#linear-gradient"/><linearGradient id="linear-gradient-16" x1="1.8" y1="51.06" x2="20.07" y2="51.06" gradientUnits="userSpaceOnUse"><stop offset="0" stop-color="#e5a713"/><stop offset="0.57" stop-color="#ffe600"/><stop offset="1" stop-color="#e9b010"/></linearGradient><linearGradient id="linear-gradient-17" x1="21.83" y1="51.06" x2="40.28" y2="51.06" xlink:href="#linear-gradient-16"/></defs><title>Asset 2</title><g id="Layer_2" data-name="Layer 2"><g id="Layer_1-2" data-name="Layer 1"><path class="cls-1" d="M19.17,30.29a9.6,9.6,0,0,1-5,1H11.47q-5.45,0-8.45-3T0,18.92V14c0-1.4.05-2.85.14-4.35s.22-2.84.38-4A5.59,5.59,0,0,1,2.26,1.78a5.34,5.34,0,0,1,3.35-1H21V3.85A3,3,0,0,1,19.76,6.5a5.34,5.34,0,0,1-3.12.89H8.24c-.09.9-.17,1.46-.23,2.48s-.09,2-.09,2.84H18.56v3a2.85,2.85,0,0,1-1.09,2.54,6.53,6.53,0,0,1-3.3.75H7.92v1.25a8.42,8.42,0,0,0,.21,2,3,3,0,0,0,.76,1.48,2.93,2.93,0,0,0,1.47.81,9.45,9.45,0,0,0,2.34.24h1.85A19.93,19.93,0,0,0,18,24.53a14.54,14.54,0,0,0,3.06-1l-.11,3.28A3.84,3.84,0,0,1,19.17,30.29Z"/><path class="cls-1" d="M48.86,5.28c-.22,1.13-.55,2.45-1,4s-1,3.08-1.54,4.74S45.1,17.32,44.4,19,43,22.36,42.32,23.91s-1.39,3-2.09,4.24a28.8,28.8,0,0,1-1.89,3.11H36.63a4.15,4.15,0,0,1-2.37-.59,7.67,7.67,0,0,1-1.84-2.12,42.86,42.86,0,0,1-3.18-5.78,72.38,72.38,0,0,1-2.77-6.95q-1.26-3.68-2.18-7.55A62.77,62.77,0,0,1,22.94.73h4.74A3.87,3.87,0,0,1,30.57,1.8a4.79,4.79,0,0,1,1.28,2.69c.16,1,.38,2.24.69,3.56s.64,2.69,1,4.09.83,2.8,1.3,4.2.95,2.69,1.42,3.85c.6-1.51,1.19-3.18,1.78-5s1.11-3.6,1.58-5.39.87-3.5,1.19-5.1.52-2.93.62-4h4.21a3.18,3.18,0,0,1,2.4,1A3.54,3.54,0,0,1,49,4.23a4.55,4.55,0,0,1,0,.52C48.92,4.93,48.89,5.1,48.86,5.28Z"/><path class="cls-1" d="M126.77,5.28q-.33,1.69-1,4c-.44,1.5-1,3.08-1.54,4.74S123,17.32,122.32,19s-1.39,3.32-2.09,4.87-1.39,3-2.08,4.24a30.36,30.36,0,0,1-1.9,3.11h-1.7a4.13,4.13,0,0,1-2.37-.59,7.68,7.68,0,0,1-1.85-2.12,44,44,0,0,1-3.18-5.78,72.38,72.38,0,0,1-2.77-6.95c-.84-2.45-1.56-5-2.18-7.55A64.81,64.81,0,0,1,100.85.73h4.74a3.87,3.87,0,0,1,2.89,1.07,4.79,4.79,0,0,1,1.28,2.69c.16,1,.39,2.24.69,3.56s.64,2.69,1,4.09.83,2.8,1.3,4.2.95,2.69,1.43,3.85c.59-1.51,1.19-3.18,1.77-5s1.11-3.6,1.59-5.39.87-3.5,1.19-5.1.52-2.93.61-4h4.22a3.17,3.17,0,0,1,2.39,1,3.5,3.5,0,0,1,.93,2.54,2.31,2.31,0,0,1-.06.52C126.83,4.93,126.81,5.1,126.77,5.28Z"/><path class="cls-1" d="M78.44,15.63a21,21,0,0,1-.65,5.69,12.55,12.55,0,0,1-2.44,5.19,14.39,14.39,0,0,1-4.67,4A11.89,11.89,0,0,1,64.4,32a12.47,12.47,0,0,1-5.11-1.2,12.93,12.93,0,0,1-4.15-3.2,14.82,14.82,0,0,1-3.09-4.65,17.45,17.45,0,0,1-1.11-6.39A22.46,22.46,0,0,1,51.85,10a14.8,14.8,0,0,1,2.86-5.14,14.4,14.4,0,0,1,4.36-3.51A12.07,12.07,0,0,1,65.19,0a13.19,13.19,0,0,1,5,1.28,13.47,13.47,0,0,1,4.34,3.22,17.61,17.61,0,0,1,2.81,4.76A15.8,15.8,0,0,1,78.44,15.63Zm-7.54.79a11.88,11.88,0,0,0-.69-4.76A7.58,7.58,0,0,0,68.86,9a6.84,6.84,0,0,0-1.74-1.56,4.93,4.93,0,0,0-2.58-.75,5.37,5.37,0,0,0-4,2.42,12.07,12.07,0,0,0-1.93,6.53,11.64,11.64,0,0,0,2,6.82,5.56,5.56,0,0,0,4.55,2.44c1.25,0,2.57-.84,3.79-2.44A10.81,10.81,0,0,0,70.9,16.42Z"/><path class="cls-1" d="M100.73,30c-.88.77-2.52,1.16-4.9,1.16H93.07q-5.55,0-8-2.65T82.6,20.85V.73h3.09a4.88,4.88,0,0,1,3.63,1.38,5.25,5.25,0,0,1,1.35,3.82V19.69c0,1.78.31,3,1,3.7a4.54,4.54,0,0,0,3.38,1h1.3a19.6,19.6,0,0,0,2.9-.24,14.44,14.44,0,0,0,2.85-.73V26.3A5.06,5.06,0,0,1,100.73,30Z"/><path class="cls-1" d="M134.87,31.32a4.59,4.59,0,0,1-1.59-.28,4.54,4.54,0,0,1-1.44-.84,4.14,4.14,0,0,1-1.05-1.37,4.38,4.38,0,0,1-.4-1.93V.73h3.67a4.35,4.35,0,0,1,1.53.28,4.54,4.54,0,0,1,1.38.83,4.25,4.25,0,0,1,1,1.29,3.93,3.93,0,0,1,.36,1.67V31.32Z"/><path class="cls-2" d="M19.6,31a10.32,10.32,0,0,1-5.38,1.08H11.47c-3.83,0-6.87-1.07-9-3.21A9,9,0,0,1,1.2,27.32a9.56,9.56,0,0,0,2.06,3.09c2.15,2.13,5.19,3.21,9,3.21H15a10.33,10.33,0,0,0,5.39-1.09,4.66,4.66,0,0,0,2.14-4.12l.11-3.27a.81.81,0,0,0-.35-.71.86.86,0,0,0-.46-.14h0l-.1,2.58A4.65,4.65,0,0,1,19.6,31Z"/><path class="cls-3" d="M21.86,1.46V3.85a3.8,3.8,0,0,1-1.63,3.31,6.09,6.09,0,0,1-3.59,1.05H9c-.06.53-.11,1-.16,1.71s-.07,1.34-.08,2h.88c0-.15,0-.29,0-.43,0-.7.1-1.18.16-1.72h7.65a6.16,6.16,0,0,0,3.6-1,3.82,3.82,0,0,0,1.63-3.32V4.53a13.91,13.91,0,0,0-.69-3C21.88,1.49,22,1.46,21.86,1.46Z"/><path class="cls-4" d="M17.94,18.92a7.42,7.42,0,0,1-3.77.88H8.73v.44a7.38,7.38,0,0,0,.19,1.85,2.42,2.42,0,0,0,.55,1.11l.22.19a7.48,7.48,0,0,1-.14-1.61v-.43H15a7.39,7.39,0,0,0,3.76-.89,3.62,3.62,0,0,0,1.45-3.21v-3a.82.82,0,0,0-.82-.82V15.7A3.66,3.66,0,0,1,17.94,18.92Z"/><path class="cls-5" d="M33.33,7.87c.29,1.31.64,2.67,1,4.05s.82,2.78,1.29,4.16c.22.63.43,1.24.64,1.82.05-.13.1-.26.14-.39-.45-1.35-.87-2.71-1.25-4s-.74-2.75-1-4.05S33.63,7,33.47,5.91a5.66,5.66,0,0,0-1.08-2.64,5.52,5.52,0,0,1,.26,1.1C32.81,5.4,33,6.58,33.33,7.87Z"/><path class="cls-6" d="M50.57,6.44a3.91,3.91,0,0,0,.07-.67,4.35,4.35,0,0,0-1-2.92,5.06,5.06,0,0,1,.18,1.38,3.68,3.68,0,0,1-.06.66c0,.18-.06.35-.1.53-.22,1.17-.57,2.53-1,4.05s-1,3.11-1.55,4.78-1.23,3.38-1.93,5.09-1.4,3.35-2.1,4.9-1.4,3-2.11,4.3a31.1,31.1,0,0,1-2,3.2.81.81,0,0,1-.66.33H36.63a4.89,4.89,0,0,1-2.83-.73A8.31,8.31,0,0,1,31.73,29c-.54-.81-1.08-1.7-1.6-2.65a40.54,40.54,0,0,0,2.42,4.2,8.23,8.23,0,0,0,2.06,2.34,4.92,4.92,0,0,0,2.84.74h1.7a.84.84,0,0,0,.67-.34,30.82,30.82,0,0,0,2-3.19c.7-1.3,1.41-2.74,2.11-4.3s1.41-3.21,2.1-4.9,1.34-3.43,1.93-5.1S49,12.51,49.46,11s.79-2.88,1-4Z"/><path class="cls-7" d="M127.73,4.23a3.68,3.68,0,0,1-.06.66l-.09.53c-.23,1.17-.57,2.53-1,4.05s-1,3.11-1.55,4.78-1.24,3.38-1.94,5.09-1.39,3.35-2.09,4.9-1.42,3-2.11,4.3a29.3,29.3,0,0,1-2,3.2.8.8,0,0,1-.66.33h-1.7a4.9,4.9,0,0,1-2.84-.73A8.31,8.31,0,0,1,109.64,29c-.54-.81-1.08-1.7-1.6-2.65a41.62,41.62,0,0,0,2.42,4.2,8.24,8.24,0,0,0,2.07,2.34,4.89,4.89,0,0,0,2.83.74h1.71a.82.82,0,0,0,.66-.34,30.82,30.82,0,0,0,2-3.19c.7-1.3,1.42-2.74,2.11-4.3s1.4-3.2,2.1-4.91,1.35-3.42,1.93-5.09,1.12-3.28,1.56-4.78.78-2.88,1-4c0-.18.07-.35.1-.53a3.88,3.88,0,0,0,.06-.67,4.39,4.39,0,0,0-1-2.93A5.14,5.14,0,0,1,127.73,4.23Z"/><path class="cls-8" d="M111.24,7.87c.3,1.3.65,2.67,1,4.05s.83,2.79,1.3,4.16c.21.63.42,1.24.64,1.82,0-.13.09-.26.14-.39-.46-1.34-.88-2.7-1.26-4s-.74-2.75-1-4.05-.52-2.47-.67-3.51a5.67,5.67,0,0,0-1.09-2.64,6.32,6.32,0,0,1,.27,1.1C110.72,5.4,111,6.58,111.24,7.87Z"/><path class="cls-9" d="M60.21,17.23A11.23,11.23,0,0,1,62,11.12a4.54,4.54,0,0,1,3.34-2,4,4,0,0,1,2.14.61,6.35,6.35,0,0,1,1.55,1.4l.14.18a5,5,0,0,0-1-1.72,6,6,0,0,0-1.55-1.4,4,4,0,0,0-2.14-.62,4.59,4.59,0,0,0-3.34,2,11.16,11.16,0,0,0-1.8,6.12,11,11,0,0,0,1.68,6.14A11.74,11.74,0,0,1,60.21,17.23Z"/><path class="cls-10" d="M77.53,7.71c.19.39.38.8.57,1.24a16.57,16.57,0,0,1,1.15,6.68,21.6,21.6,0,0,1-.68,5.9A13.1,13.1,0,0,1,76,27a15.13,15.13,0,0,1-4.8,4.18l-.07,0a12.94,12.94,0,0,1-6.7,1.54A13.34,13.34,0,0,1,59,31.53a13.6,13.6,0,0,1-4.42-3.41,19,19,0,0,1-2.21-2.82,16,16,0,0,0,3,4.37,13.47,13.47,0,0,0,4.42,3.4,13.19,13.19,0,0,0,5.43,1.28,12.87,12.87,0,0,0,6.71-1.55l.06,0a15.08,15.08,0,0,0,4.81-4.19,13.19,13.19,0,0,0,2.6-5.5,21.68,21.68,0,0,0,.68-5.91,16.75,16.75,0,0,0-1.15-6.68A25.66,25.66,0,0,0,77.53,7.71Z"/><path class="cls-11" d="M103.34,24.32a.86.86,0,0,0-.47-.14V26.3a5.94,5.94,0,0,1-1.6,4.32c-1,.92-2.83,1.36-5.44,1.36H93.07c-3.92,0-6.81-1-8.61-2.9a7.7,7.7,0,0,1-.88-1.16,9,9,0,0,0,1.7,2.7c1.79,1.94,4.69,2.91,8.61,2.91h2.76c2.6,0,4.38-.44,5.43-1.36a5.92,5.92,0,0,0,1.61-4.33V25A.84.84,0,0,0,103.34,24.32Z"/><path class="cls-12" d="M91.48,19.69c0,1.94.4,2.78.74,3.14a2.11,2.11,0,0,0,.23.19,9.14,9.14,0,0,1-.15-1.78V7.48a6.32,6.32,0,0,0-1.19-3.93,7.38,7.38,0,0,1,.37,2.38Z"/><path class="cls-13" d="M138.91,3.4a4.56,4.56,0,0,1,.21,1.4V31.32a.82.82,0,0,1-.81.82h-3.44A5.57,5.57,0,0,1,133,31.8a5.45,5.45,0,0,1-1.68-1,5,5,0,0,1-.67-.71,3.22,3.22,0,0,0,.24.61,5,5,0,0,0,1.25,1.64,5.31,5.31,0,0,0,1.69,1,5.42,5.42,0,0,0,1.87.33h3.43a.82.82,0,0,0,.82-.81V6.34a4.67,4.67,0,0,0-.44-2A5,5,0,0,0,138.91,3.4Z"/><path class="cls-14" d="M153.9,14.47c.3-.88.58-1.66.87-2.4-.23-.65-.47-1.24-.71-1.81-.33.81-.64,1.68-1,2.67l-.2.61c-.37,1.07-.69,2-1,3.05h1.29c.16-.49.33-1,.5-1.5Z"/><path class="cls-15" d="M169.38,32.34c-.16-1.13-.39-2.46-.69-4s-.67-3.15-1.08-4.84-.88-3.51-1.4-5.29-1.06-3.52-1.6-5.19-1.1-3.22-1.65-4.61a20.09,20.09,0,0,0-1.38-2.82c.19.39.38.81.56,1.27.56,1.39,1.12,2.95,1.66,4.62s1.07,3.4,1.59,5.18,1,3.57,1.41,5.29.77,3.33,1.07,4.84.53,2.84.69,4a.8.8,0,0,1-.8.93H163.6a4.43,4.43,0,0,1-3.13-.78,4,4,0,0,1-.62-.67,5.22,5.22,0,0,0,1.44,2.22,4.48,4.48,0,0,0,3.13.78h4.16a.8.8,0,0,0,.61-.28A.78.78,0,0,0,169.38,32.34Z"/><path class="cls-16" d="M158,24.65h-8.06c0,.14-.07.28-.1.42-.17.69-.34,1.35-.47,2.14-.21,1.23-.42,2.54-.64,3.93a.82.82,0,0,1-.81.69l-3.34-.11a4,4,0,0,1-3.13-1.18,4,4,0,0,0,.77,1.5,3.92,3.92,0,0,0,3.18,1.23l3.34.11a.82.82,0,0,0,.81-.69q.33-2.1.63-3.93c.14-.8.3-1.46.47-2.15,0-.14.07-.28.11-.42h7.6l-.19-.81C158.09,25.14,158,24.89,158,24.65Z"/><path class="cls-1" d="M164.11,30.91c-1.51,0-2.37,0-3.11-.59a5.55,5.55,0,0,1-1.48-2.74c-.45-1.62-.62-2.66-.91-3.74h-9.34c-.25,1.11-.53,2-.74,3.25s-.42,2.54-.64,3.94l-3.3-.11A3.17,3.17,0,0,1,142,30a3.75,3.75,0,0,1-.78-2.47,16.37,16.37,0,0,1,.43-3.11q.42-2.05,1.14-4.62t1.65-5.37c.64-1.89,1.31-3.69,2-5.43s1.44-3.33,2.2-4.79a6.74,6.74,0,0,1,2.69-3A9.6,9.6,0,0,1,154,.73a6.45,6.45,0,0,1,3.6.83,7.6,7.6,0,0,1,2.09,2.23,26.72,26.72,0,0,1,1.73,3.41q.83,2.1,1.63,4.57t1.59,5.16c.52,1.8,1,3.54,1.39,5.25s.77,3.31,1.07,4.81.53,2.81.69,3.92Zm-6.83-13.53c-.4-1.68-.9-3-1.47-4.78a41,41,0,0,0-1.76-4.4,45.5,45.5,0,0,0-1.74,4.47c-.57,1.68-1.06,3.06-1.47,4.74Z"/><path class="cls-1" d="M163.84,4.06A2.72,2.72,0,0,1,164.06,3a2.86,2.86,0,0,1,.61-.9,2.8,2.8,0,0,1,.91-.59,2.61,2.61,0,0,1,1.08-.22,2.66,2.66,0,0,1,1.09.22A2.76,2.76,0,0,1,169.26,3a2.72,2.72,0,0,1,.22,1.11,2.81,2.81,0,0,1-.22,1.13,2.93,2.93,0,0,1-.61.89,3.05,3.05,0,0,1-.9.59,2.82,2.82,0,0,1-1.09.21,2.77,2.77,0,0,1-1.08-.21,3,3,0,0,1-.91-.59,2.93,2.93,0,0,1-.61-.89A2.81,2.81,0,0,1,163.84,4.06Zm.5,0A2.44,2.44,0,0,0,165,5.78a2.23,2.23,0,0,0,.74.51,2.31,2.31,0,0,0,.91.18,2.27,2.27,0,0,0,.91-.18,2.19,2.19,0,0,0,.73-.51,2.34,2.34,0,0,0,.5-.76,2.49,2.49,0,0,0,.18-1,2.51,2.51,0,0,0-.18-.95,2.34,2.34,0,0,0-.5-.76,2.19,2.19,0,0,0-.73-.51,2.12,2.12,0,0,0-.91-.19,2.15,2.15,0,0,0-.91.19,2.23,2.23,0,0,0-.74.51,2.44,2.44,0,0,0-.67,1.71Zm1.25-1.65h1.24c.77,0,1.15.31,1.15.94a.77.77,0,0,1-.25.65,1.08,1.08,0,0,1-.62.25l.95,1.46h-.54l-.9-1.42h-.53V5.71h-.5Zm.5,1.47h.84a.77.77,0,0,0,.28-.07.38.38,0,0,0,.19-.16.49.49,0,0,0,.08-.31.43.43,0,0,0-.07-.27.4.4,0,0,0-.17-.15.62.62,0,0,0-.24-.08h-.91Z"/><path class="cls-17" d="M20.07,61.21a2.77,2.77,0,0,1-.78,1.93,2.52,2.52,0,0,1-1.94.85,2.55,2.55,0,0,1-2.1-.94l-8-9.65v7.79a2.76,2.76,0,0,1-.76,2.06A2.67,2.67,0,0,1,4.5,64a2.66,2.66,0,0,1-1.94-.74,2.77,2.77,0,0,1-.76-2.07V40.93a2.47,2.47,0,0,1,2.78-2.81h6.36q9,0,9,8.14A6.17,6.17,0,0,1,18,51a9,9,0,0,1-4.75,2.12l6.13,6.56A2.27,2.27,0,0,1,20.07,61.21Zm-5.8-14.93a3,3,0,0,0-.92-2.35,3.45,3.45,0,0,0-2.43-.84H7.21v6.42h3.71a3.38,3.38,0,0,0,2.43-.87A3.11,3.11,0,0,0,14.27,46.28Z"/><path class="cls-18" d="M40.28,46.73A7.91,7.91,0,0,1,37.6,53a9,9,0,0,1-6.35,2.31h-4v5.91a2.77,2.77,0,0,1-.76,2.07,2.93,2.93,0,0,1-3.89,0,2.77,2.77,0,0,1-.76-2.07V40.93a2.49,2.49,0,0,1,2.82-2.81H31a9.41,9.41,0,0,1,6.62,2.4A8,8,0,0,1,40.28,46.73Zm-5.66,0a3.83,3.83,0,0,0-1-2.74,3.55,3.55,0,0,0-2.69-1.08H27.24v7.63h3.67a3.55,3.55,0,0,0,2.69-1.08A3.82,3.82,0,0,0,34.62,46.7Z"/></g></g></svg>