<svg xmlns="http://www.w3.org/2000/svg" viewBox="0 0 512 464"><title>Asset 1</title><g id="Layer_2" data-name="Layer 2"><g id="Layer"><path d="M414,80H98A10,10,0,0,1,88,70V44A44,44,0,0,1,132,0H380a44,44,0,0,1,44,44V70A10,10,0,0,1,414,80Z"/><path d="M458,112H54A54.06,54.06,0,0,0,0,166V354a54.06,54.06,0,0,0,54,54H88V328a72.08,72.08,0,0,1,72-72H352a72.08,72.08,0,0,1,72,72v80h34a54.06,54.06,0,0,0,54-54V166A54.06,54.06,0,0,0,458,112ZM96,232a24,24,0,1,1,0-48h0a24,24,0,0,1,0,48Z"/><path d="M352,304H160a24,24,0,0,0-24,24V440a24,24,0,0,0,24,24H352a24,24,0,0,0,24-24V328A24,24,0,0,0,352,304Z"/></g></g></svg>