<svg xmlns="http://www.w3.org/2000/svg" viewBox="0 0 8 8"><defs><style>.cls-1{fill-rule:evenodd;}</style></defs><title>Asset 1</title><g id="Layer_2" data-name="Layer 2"><g id="Layer_1-2" data-name="Layer 1"><path class="cls-1" d="M7.5,3H5.38A.38.38,0,0,1,5,2.62a.36.36,0,0,1,.11-.26h0l.71-.71A3,3,0,1,0,7,4.42H7A.49.49,0,0,1,7.45,4a.5.5,0,0,1,.5.5s0,0,0,.06h0a.19.19,0,0,1,0,.08.13.13,0,0,1,0,.06A4,4,0,1,1,4,0,3.89,3.89,0,0,1,6.52,1L7.36.11h0A.36.36,0,0,1,7.62,0,.38.38,0,0,1,8,.38V2.5A.5.5,0,0,1,7.5,3Z"/></g></g></svg>