<svg xmlns="http://www.w3.org/2000/svg" viewBox="0 0 16.78 64"><title>Asset 1</title><g id="Layer_2" data-name="Layer 2"><g id="Layer_1-2" data-name="Layer 1"><path d="M10.83,36.26v-14c3.44-1.41,6-5.74,6-10.87C16.78,5.09,13,0,8.39,0S0,5.09,0,11.36c0,5.13,2.51,9.46,6,10.87v14a3.75,3.75,0,0,0-2.78,3.45V60.32A4,4,0,0,0,7.39,64h2a4,4,0,0,0,4.21-3.68V39.71A3.74,3.74,0,0,0,10.83,36.26ZM4.44,6.9l-1,.18a3.42,3.42,0,0,1,1.09-3A6.3,6.3,0,0,1,7.9,2.4l.17,1A5.23,5.23,0,0,0,5.25,4.8,2.39,2.39,0,0,0,4.44,6.9Z"/></g></g></svg>